<svg version="1" xmlns="http://www.w3.org/2000/svg" viewBox="0 0 32 32">
  <title>icon-infinity</title>
  <path d="M29.312 20.832c-1.28 1.28-3.008 1.984-4.832 1.984s-3.52-0.704-4.832-1.984c-0.032-0.032-0.224-0.224-0.256-0.256v0 1.28c0 0.448-0.352 0.8-0.8 0.8s-0.8-0.352-0.8-0.8v-3.168c0-0.448 0.352-0.8 0.8-0.8h3.168c0.448 0 0.8 0.352 0.8 0.8s-0.352 0.8-0.8 0.8h-1.28c0.032 0.032 0.224 0.224 0.256 0.256 0.992 0.992 2.304 1.536 3.68 1.536 1.408 0 2.72-0.544 3.68-1.536 0.992-0.992 1.536-2.304 1.536-3.68s-0.544-2.72-1.536-3.68c-0.992-0.992-2.304-1.536-3.68-1.536-1.408 0-2.72 0.544-3.68 1.536l-8.416 8.448c-1.312 1.312-3.072 1.984-4.832 1.984s-3.488-0.672-4.832-1.984c-2.656-2.656-2.656-6.976 0-9.632s6.976-2.656 9.632 0c0.032 0.032 0.16 0.16 0.192 0.192l0.064 0.064v-1.28c0-0.448 0.352-0.8 0.8-0.8s0.8 0.352 0.8 0.8v3.168c0 0.448-0.352 0.8-0.8 0.8h-3.168c-0.448 0-0.8-0.352-0.8-0.8s0.352-0.8 0.8-0.8h1.28l-0.096-0.064c-0.032-0.032-0.16-0.16-0.192-0.192-0.992-0.992-2.304-1.536-3.68-1.536s-2.72 0.544-3.68 1.536c-2.048 2.048-2.048 5.344 0 7.392 0.992 0.992 2.304 1.536 3.68 1.536s2.72-0.544 3.68-1.536l8.512-8.512c1.28-1.28 3.008-1.984 4.832-1.984s3.52 0.704 4.832 1.984c2.624 2.656 2.624 7.008-0.032 9.664z"></path>
  <path d="M24.512 23.488c-1.6 0-3.136-0.512-4.416-1.44-0.128 0.704-0.736 1.248-1.44 1.248-0.8 0-1.472-0.672-1.472-1.472v-3.168c0-0.8 0.672-1.472 1.472-1.472h3.168c0.8 0 1.472 0.672 1.472 1.472 0 0.608-0.384 1.152-0.928 1.376 0.64 0.352 1.376 0.544 2.144 0.544 1.216 0 2.368-0.48 3.2-1.344 0.864-0.864 1.344-1.984 1.344-3.2s-0.48-2.368-1.344-3.2c-0.864-0.864-1.984-1.344-3.2-1.344s-2.368 0.48-3.2 1.344l-8.512 8.48c-1.408 1.408-3.296 2.176-5.312 2.176s-3.872-0.768-5.312-2.176c-2.912-2.912-2.912-7.68 0-10.592 1.408-1.408 3.296-2.176 5.312-2.176 0 0 0 0 0 0 1.6 0 3.136 0.512 4.416 1.44 0.128-0.704 0.736-1.248 1.472-1.248 0.8 0 1.472 0.672 1.472 1.472v3.168c0 0.8-0.672 1.472-1.472 1.472h-3.168c-0.8 0-1.472-0.672-1.472-1.472 0-0.608 0.384-1.152 0.928-1.376-0.64-0.352-1.376-0.544-2.144-0.544-1.216 0-2.368 0.48-3.2 1.344-1.76 1.76-1.76 4.64 0 6.432 0.864 0.864 2.016 1.344 3.2 1.344 1.216 0 2.368-0.48 3.2-1.344l8.48-8.544c1.408-1.408 3.296-2.208 5.312-2.208s3.872 0.768 5.312 2.208c1.408 1.408 2.176 3.296 2.176 5.312s-0.768 3.872-2.208 5.312v0c0 0 0 0 0 0-1.408 1.408-3.296 2.176-5.28 2.176zM18.752 18.912l1.44 1.44c1.152 1.152 2.688 1.792 4.32 1.792s3.168-0.64 4.32-1.792v0c1.152-1.152 1.792-2.688 1.792-4.32s-0.64-3.168-1.792-4.32c-1.152-1.152-2.688-1.792-4.352-1.792-1.632 0-3.168 0.64-4.32 1.792l-8.48 8.448c-1.12 1.12-2.592 1.728-4.16 1.728s-3.072-0.608-4.16-1.728c-2.304-2.304-2.304-6.048 0-8.352 1.12-1.12 2.592-1.728 4.16-1.728s3.072 0.608 4.16 1.728l1.44 1.408h-2.912c-0.064 0-0.128 0.064-0.128 0.128s0.064 0.128 0.128 0.128h3.168c0.064 0 0.128-0.064 0.128-0.128v-3.168c0-0.064-0.064-0.128-0.128-0.128s-0.128 0.064-0.128 0.128v2.912l-1.408-1.408c-1.152-1.152-2.688-1.792-4.352-1.792-1.632 0-3.168 0.64-4.32 1.792-2.4 2.4-2.4 6.272 0 8.672 1.152 1.152 2.688 1.792 4.32 1.792s3.168-0.64 4.32-1.792l8.512-8.512c1.12-1.12 2.592-1.728 4.16-1.728s3.072 0.608 4.16 1.728c1.12 1.12 1.728 2.592 1.728 4.16s-0.608 3.072-1.728 4.16c-1.12 1.12-2.592 1.728-4.16 1.728s-3.072-0.608-4.16-1.728l-1.408-1.408h2.912c0.064 0 0.128-0.064 0.128-0.128s-0.064-0.128-0.128-0.128h-3.168c-0.064 0-0.128 0.064-0.128 0.128v3.168c0 0.064 0.064 0.128 0.128 0.128s0.128-0.064 0.128-0.128v-2.88z"></path>
</svg>
