<svg version="1" xmlns="http://www.w3.org/2000/svg" viewBox="0 0 32 32">
  <title>icon-pause</title>
  <path d="M16 0.32c-8.64 0-15.68 7.040-15.68 15.68s7.040 15.68 15.68 15.68 15.68-7.040 15.68-15.68-7.040-15.68-15.68-15.68zM16 29.216c-7.296 0-13.216-5.92-13.216-13.216s5.92-13.216 13.216-13.216 13.216 5.92 13.216 13.216-5.92 13.216-13.216 13.216z"></path>
  <path d="M16 32c-8.832 0-16-7.168-16-16s7.168-16 16-16 16 7.168 16 16-7.168 16-16 16zM16 0.672c-8.448 0-15.328 6.88-15.328 15.328s6.88 15.328 15.328 15.328c8.448 0 15.328-6.88 15.328-15.328s-6.88-15.328-15.328-15.328zM16 29.568c-7.488 0-13.568-6.080-13.568-13.568s6.080-13.568 13.568-13.568c7.488 0 13.568 6.080 13.568 13.568s-6.080 13.568-13.568 13.568zM16 3.104c-7.104 0-12.896 5.792-12.896 12.896s5.792 12.896 12.896 12.896c7.104 0 12.896-5.792 12.896-12.896s-5.792-12.896-12.896-12.896z"></path>
  <path d="M12.16 22.336v0c-0.896 0-1.6-0.704-1.6-1.6v-9.472c0-0.896 0.704-1.6 1.6-1.6v0c0.896 0 1.6 0.704 1.6 1.6v9.504c0 0.864-0.704 1.568-1.6 1.568z"></path>
  <path d="M19.84 22.336v0c-0.896 0-1.6-0.704-1.6-1.6v-9.472c0-0.896 0.704-1.6 1.6-1.6v0c0.896 0 1.6 0.704 1.6 1.6v9.504c0 0.864-0.704 1.568-1.6 1.568z"></path>
</svg>
