<svg version="1" xmlns="http://www.w3.org/2000/svg" viewBox="0 0 32 32">
  <title>link</title>
  <path d="M23.584 17.92c0 0.864 0 1.728 0 2.56 0 1.312 0 2.656 0 3.968 0 0.352 0.032 0.736-0.032 1.12 0.032-0.16 0.032-0.288 0.064-0.448-0.032 0.224-0.096 0.448-0.16 0.64 0.064-0.128 0.128-0.256 0.16-0.416-0.096 0.192-0.192 0.384-0.32 0.576 0.096-0.128 0.16-0.224 0.256-0.352-0.128 0.16-0.288 0.32-0.48 0.48 0.128-0.096 0.224-0.16 0.352-0.256-0.192 0.128-0.352 0.256-0.576 0.32 0.128-0.064 0.256-0.128 0.416-0.16-0.224 0.096-0.416 0.16-0.64 0.16 0.16-0.032 0.288-0.032 0.448-0.064-0.256 0.032-0.512 0.032-0.768 0.032-0.448 0-0.896 0-1.312 0-1.472 0-2.976 0-4.448 0-1.824 0-3.616 0-5.44 0-1.568 0-3.104 0-4.672 0-0.736 0-1.44 0-2.176 0-0.128 0-0.224 0-0.352-0.032 0.16 0.032 0.288 0.032 0.448 0.064-0.224-0.032-0.448-0.096-0.64-0.16 0.128 0.064 0.256 0.128 0.416 0.16-0.192-0.096-0.384-0.192-0.576-0.32 0.128 0.096 0.224 0.16 0.352 0.256-0.16-0.128-0.32-0.288-0.48-0.48 0.096 0.128 0.16 0.224 0.256 0.352-0.128-0.192-0.256-0.352-0.32-0.576 0.064 0.128 0.128 0.256 0.16 0.416-0.096-0.224-0.16-0.416-0.16-0.64 0.032 0.16 0.032 0.288 0.064 0.448-0.032-0.256-0.032-0.512-0.032-0.768 0-0.448 0-0.896 0-1.312 0-1.472 0-2.976 0-4.448 0-1.824 0-3.616 0-5.44 0-1.568 0-3.104 0-4.672 0-0.736 0-1.44 0-2.176 0-0.128 0-0.224 0.032-0.352-0.032 0.16-0.032 0.288-0.064 0.448 0.032-0.224 0.096-0.448 0.16-0.64-0.064 0.128-0.128 0.256-0.16 0.416 0.096-0.192 0.192-0.384 0.32-0.576-0.096 0.128-0.16 0.224-0.256 0.352 0.128-0.16 0.288-0.32 0.48-0.48-0.128 0.096-0.224 0.16-0.352 0.256 0.192-0.128 0.352-0.256 0.576-0.32-0.128 0.064-0.256 0.128-0.416 0.16 0.224-0.096 0.416-0.16 0.64-0.16-0.16 0.032-0.288 0.032-0.448 0.064 0.48-0.064 0.96-0.032 1.44-0.032 0.992 0 1.952 0 2.944 0 1.216 0 2.432 0 3.616 0 1.056 0 2.112 0 3.168 0 0.512 0 1.024 0 1.536 0 0 0 0 0 0.032 0 0.448 0 0.896-0.192 1.184-0.48s0.512-0.768 0.48-1.184c-0.032-0.448-0.16-0.896-0.48-1.184s-0.736-0.48-1.184-0.48c-0.64 0-1.28 0-1.92 0-1.408 0-2.816 0-4.224 0-1.44 0-2.848 0-4.256 0-0.672 0-1.344 0-2.016 0-0.736 0-1.472 0.192-2.112 0.576s-1.216 0.96-1.568 1.6c-0.384 0.64-0.544 1.376-0.544 2.144 0 0.672 0 1.376 0 2.048 0 1.28 0 2.56 0 3.84 0 1.504 0 3.040 0 4.544 0 1.408 0 2.848 0 4.256 0 0.992 0 1.952 0 2.944 0 0.224 0 0.448 0 0.64 0 0.864 0.224 1.76 0.768 2.464 0.16 0.192 0.288 0.384 0.48 0.576s0.384 0.352 0.608 0.512c0.32 0.224 0.64 0.384 1.024 0.512 0.448 0.16 0.928 0.224 1.408 0.224 0.16 0 0.32 0 0.48 0 0.896 0 1.792 0 2.72 0 1.376 0 2.784 0 4.16 0 1.536 0 3.040 0 4.576 0 1.312 0 2.656 0 3.968 0 0.768 0 1.536 0 2.336 0 0.416 0 0.832-0.032 1.248-0.128 1.504-0.32 2.784-1.6 3.104-3.104 0.128-0.544 0.128-1.056 0.128-1.568 0-0.608 0-1.184 0-1.792 0-1.408 0-2.816 0-4.224 0-0.256 0-0.512 0-0.768 0-0.448-0.192-0.896-0.48-1.184s-0.768-0.512-1.184-0.48c-0.448 0.032-0.896 0.16-1.184 0.48-0.384 0.384-0.576 0.768-0.576 1.248v0z"></path>
  <path d="M32 11.232c0-0.8 0-1.568 0-2.368 0-1.248 0-2.528 0-3.776 0-0.288 0-0.576 0-0.864 0-0.896-0.768-1.696-1.696-1.696-0.8 0-1.568 0-2.368 0-1.248 0-2.528 0-3.776 0-0.288 0-0.576 0-0.864 0-0.448 0-0.896 0.192-1.184 0.48s-0.512 0.768-0.48 1.184c0.032 0.448 0.16 0.896 0.48 1.184s0.736 0.48 1.184 0.48c0.8 0 1.568 0 2.368 0 1.248 0 2.528 0 3.776 0 0.288 0 0.576 0 0.864 0-0.576-0.576-1.12-1.12-1.696-1.696 0 0.8 0 1.568 0 2.368 0 1.248 0 2.528 0 3.776 0 0.288 0 0.576 0 0.864 0 0.448 0.192 0.896 0.48 1.184s0.768 0.512 1.184 0.48c0.448-0.032 0.896-0.16 1.184-0.48 0.352-0.256 0.544-0.64 0.544-1.12v0z"></path>
  <path d="M15.040 21.888c0.16-0.16 0.288-0.288 0.448-0.448 0.384-0.384 0.8-0.8 1.184-1.184 0.608-0.608 1.184-1.184 1.792-1.792 0.704-0.704 1.44-1.44 2.176-2.176 0.8-0.8 1.568-1.568 2.368-2.368s1.6-1.6 2.4-2.4c0.736-0.736 1.504-1.504 2.24-2.24 0.64-0.64 1.248-1.248 1.888-1.888 0.448-0.448 0.896-0.896 1.344-1.344 0.224-0.224 0.448-0.416 0.64-0.64 0 0 0.032-0.032 0.032-0.032 0.32-0.32 0.48-0.768 0.48-1.184s-0.192-0.896-0.48-1.184c-0.32-0.288-0.736-0.512-1.184-0.48-0.512 0.032-0.928 0.16-1.248 0.48-0.16 0.16-0.288 0.288-0.448 0.448-0.384 0.384-0.8 0.8-1.184 1.184-0.608 0.608-1.184 1.184-1.792 1.792-0.704 0.704-1.44 1.44-2.176 2.176-0.8 0.8-1.568 1.568-2.368 2.368s-1.6 1.6-2.4 2.4c-0.736 0.736-1.504 1.504-2.24 2.24-0.64 0.64-1.248 1.248-1.888 1.888-0.448 0.448-0.896 0.896-1.344 1.344-0.224 0.224-0.448 0.416-0.64 0.64 0 0-0.032 0.032-0.032 0.032-0.32 0.32-0.48 0.768-0.48 1.184s0.192 0.896 0.48 1.184c0.32 0.288 0.736 0.512 1.184 0.48 0.48 0 0.928-0.16 1.248-0.48v0z"></path>
</svg>
