<svg version="1" xmlns="http://www.w3.org/2000/svg" viewBox="0 0 32 32">
  <title>icon-play</title>
  <path d="M21.216 15.168l-7.616-5.088c-0.672-0.416-1.504 0.032-1.504 0.832v10.176c0 0.8 0.896 1.248 1.504 0.832l7.616-5.088c0.576-0.416 0.576-1.248 0-1.664z"></path>
  <path d="M13.056 22.4c-0.224 0-0.416-0.064-0.608-0.16-0.448-0.224-0.704-0.672-0.704-1.152v-10.176c0-0.48 0.256-0.928 0.672-1.152s0.928-0.224 1.344 0.064l7.616 5.088c0.384 0.256 0.608 0.672 0.608 1.088s-0.224 0.864-0.608 1.088l-7.616 5.088c-0.192 0.16-0.448 0.224-0.704 0.224zM13.056 10.272c-0.096 0-0.224 0.032-0.32 0.064-0.224 0.128-0.352 0.32-0.352 0.576v10.176c0 0.256 0.128 0.48 0.352 0.576 0.224 0.128 0.448 0.096 0.64-0.032l7.616-5.088c0.192-0.128 0.288-0.32 0.288-0.544s-0.096-0.416-0.288-0.544l-7.584-5.088c-0.096-0.064-0.224-0.096-0.352-0.096z"></path>
  <path d="M16 0.32c-8.64 0-15.68 7.040-15.68 15.68s7.040 15.68 15.68 15.68 15.68-7.040 15.68-15.68-7.040-15.68-15.68-15.68zM16 29.216c-7.296 0-13.216-5.92-13.216-13.216s5.92-13.216 13.216-13.216 13.216 5.92 13.216 13.216-5.92 13.216-13.216 13.216z"></path>
  <path d="M16 32c-8.832 0-16-7.168-16-16s7.168-16 16-16 16 7.168 16 16-7.168 16-16 16zM16 0.672c-8.448 0-15.328 6.88-15.328 15.328s6.88 15.328 15.328 15.328c8.448 0 15.328-6.88 15.328-15.328s-6.88-15.328-15.328-15.328zM16 29.568c-7.488 0-13.568-6.080-13.568-13.568s6.080-13.568 13.568-13.568c7.488 0 13.568 6.080 13.568 13.568s-6.080 13.568-13.568 13.568zM16 3.104c-7.104 0-12.896 5.792-12.896 12.896s5.792 12.896 12.896 12.896c7.104 0 12.896-5.792 12.896-12.896s-5.792-12.896-12.896-12.896z"></path>
</svg>
